<svg width="35" height="22" viewBox="0 0 35 22" fill="none" xmlns="http://www.w3.org/2000/svg">
<path d="M0.492 0.599999H2.376L3.216 6.612H3.24L4.08 0.599999H5.964V9H4.716V2.64H4.692L3.732 9H2.628L1.668 2.64H1.644V9H0.492V0.599999ZM10.369 0.599999H12.157L13.525 9H12.205L11.965 7.332V7.356H10.465L10.225 9H9.00103L10.369 0.599999ZM11.809 6.216L11.221 2.064H11.197L10.621 6.216H11.809ZM16.5654 0.599999H18.5214C19.2014 0.599999 19.6974 0.76 20.0094 1.08C20.3214 1.392 20.4774 1.876 20.4774 2.532V3.048C20.4774 3.92 20.1894 4.472 19.6134 4.704V4.728C19.9334 4.824 20.1574 5.02 20.2854 5.316C20.4214 5.612 20.4894 6.008 20.4894 6.504V7.98C20.4894 8.22 20.4974 8.416 20.5134 8.568C20.5294 8.712 20.5694 8.856 20.6334 9H19.2894C19.2414 8.864 19.2094 8.736 19.1934 8.616C19.1774 8.496 19.1694 8.28 19.1694 7.968V6.432C19.1694 6.048 19.1054 5.78 18.9774 5.628C18.8574 5.476 18.6454 5.4 18.3414 5.4H17.8854V9H16.5654V0.599999ZM18.3654 4.2C18.6294 4.2 18.8254 4.132 18.9534 3.996C19.0894 3.86 19.1574 3.632 19.1574 3.312V2.664C19.1574 2.36 19.1014 2.14 18.9894 2.004C18.8854 1.868 18.7174 1.8 18.4854 1.8H17.8854V4.2H18.3654ZM24.8138 1.8H23.4338V0.599999H27.5138V1.8H26.1338V9H24.8138V1.8ZM31.0222 0.599999H32.8102L34.1782 9H32.8582L32.6182 7.332V7.356H31.1182L30.8782 9H29.6542L31.0222 0.599999ZM32.4622 6.216L31.8742 2.064H31.8502L31.2742 6.216H32.4622ZM2.352 21.12C1.72 21.12 1.236 20.94 0.9 20.58C0.572 20.22 0.408 19.712 0.408 19.056V14.544C0.408 13.888 0.572 13.38 0.9 13.02C1.236 12.66 1.72 12.48 2.352 12.48C2.984 12.48 3.464 12.66 3.792 13.02C4.128 13.38 4.296 13.888 4.296 14.544V15.432H3.048V14.46C3.048 13.94 2.828 13.68 2.388 13.68C1.948 13.68 1.728 13.94 1.728 14.46V19.152C1.728 19.664 1.948 19.92 2.388 19.92C2.828 19.92 3.048 19.664 3.048 19.152V17.868H4.296V19.056C4.296 19.712 4.128 20.22 3.792 20.58C3.464 20.94 2.984 21.12 2.352 21.12ZM9.77719 21.12C9.12919 21.12 8.63319 20.936 8.28919 20.568C7.94519 20.2 7.77319 19.68 7.77319 19.008V14.592C7.77319 13.92 7.94519 13.4 8.28919 13.032C8.63319 12.664 9.12919 12.48 9.77719 12.48C10.4252 12.48 10.9212 12.664 11.2652 13.032C11.6092 13.4 11.7812 13.92 11.7812 14.592V19.008C11.7812 19.68 11.6092 20.2 11.2652 20.568C10.9212 20.936 10.4252 21.12 9.77719 21.12ZM9.77719 19.92C10.2332 19.92 10.4612 19.644 10.4612 19.092V14.508C10.4612 13.956 10.2332 13.68 9.77719 13.68C9.32119 13.68 9.09319 13.956 9.09319 14.508V19.092C9.09319 19.644 9.32119 19.92 9.77719 19.92ZM15.4339 12.6H17.4499C18.1059 12.6 18.5979 12.776 18.9259 13.128C19.2539 13.48 19.4179 13.996 19.4179 14.676V18.924C19.4179 19.604 19.2539 20.12 18.9259 20.472C18.5979 20.824 18.1059 21 17.4499 21H15.4339V12.6ZM17.4259 19.8C17.6419 19.8 17.8059 19.736 17.9179 19.608C18.0379 19.48 18.0979 19.272 18.0979 18.984V14.616C18.0979 14.328 18.0379 14.12 17.9179 13.992C17.8059 13.864 17.6419 13.8 17.4259 13.8H16.7539V19.8H17.4259ZM23.0689 12.6H26.6689V13.8H24.3889V16.02H26.2009V17.22H24.3889V19.8H26.6689V21H23.0689V12.6ZM31.9277 21.12C31.2877 21.12 30.8037 20.94 30.4757 20.58C30.1477 20.212 29.9837 19.688 29.9837 19.008V18.528H31.2317V19.104C31.2317 19.648 31.4597 19.92 31.9157 19.92C32.1397 19.92 32.3077 19.856 32.4197 19.728C32.5397 19.592 32.5997 19.376 32.5997 19.08C32.5997 18.728 32.5197 18.42 32.3597 18.156C32.1997 17.884 31.9037 17.56 31.4717 17.184C30.9277 16.704 30.5477 16.272 30.3317 15.888C30.1157 15.496 30.0077 15.056 30.0077 14.568C30.0077 13.904 30.1757 13.392 30.5117 13.032C30.8477 12.664 31.3357 12.48 31.9757 12.48C32.6077 12.48 33.0837 12.664 33.4037 13.032C33.7317 13.392 33.8957 13.912 33.8957 14.592V14.94H32.6477V14.508C32.6477 14.22 32.5917 14.012 32.4797 13.884C32.3677 13.748 32.2037 13.68 31.9877 13.68C31.5477 13.68 31.3277 13.948 31.3277 14.484C31.3277 14.788 31.4077 15.072 31.5677 15.336C31.7357 15.6 32.0357 15.92 32.4677 16.296C33.0197 16.776 33.3997 17.212 33.6077 17.604C33.8157 17.996 33.9197 18.456 33.9197 18.984C33.9197 19.672 33.7477 20.2 33.4037 20.568C33.0677 20.936 32.5757 21.12 31.9277 21.12Z" fill="white"/>
</svg>
