<svg width="41" height="22" viewBox="0 0 41 22" fill="none" xmlns="http://www.w3.org/2000/svg">
<path d="M1.956 2.352L1.236 9H0.576L1.548 0.275999L4.908 6.732L8.268 0.275999L9.24 9H8.58L7.86 2.352L4.908 8.028L1.956 2.352ZM12.7003 6.18L12.9163 5.556H16.7923L17.0083 6.18H12.7003ZM14.8363 1.8L13.2043 5.772L13.1323 5.916L11.8723 9H11.1283L14.8363 0.275999L18.5443 9H17.8003L16.5523 5.964L16.4923 5.808L14.8363 1.8ZM22.2852 4.992H23.0172L25.8852 9H25.0692L22.2852 4.992ZM20.8572 0.599999H21.5172V9H20.8572V0.599999ZM21.2052 1.188V0.599999H22.7772C23.3212 0.599999 23.8052 0.695999 24.2292 0.887999C24.6612 1.08 25.0012 1.356 25.2492 1.716C25.4972 2.076 25.6212 2.516 25.6212 3.036C25.6212 3.548 25.4972 3.988 25.2492 4.356C25.0012 4.724 24.6612 5.004 24.2292 5.196C23.8052 5.38 23.3212 5.472 22.7772 5.472H21.2052V4.884H22.7772C23.2012 4.884 23.5772 4.816 23.9052 4.68C24.2412 4.536 24.5012 4.328 24.6852 4.056C24.8692 3.776 24.9612 3.436 24.9612 3.036C24.9612 2.636 24.8652 2.3 24.6732 2.028C24.4892 1.756 24.2332 1.548 23.9052 1.404C23.5772 1.26 23.2012 1.188 22.7772 1.188H21.2052ZM27.4985 1.224V0.599999H32.5745V1.224H30.3665V9H29.7065V1.224H27.4985ZM34.4292 6.18L34.6452 5.556H38.5212L38.7372 6.18H34.4292ZM36.5652 1.8L34.9332 5.772L34.8612 5.916L33.6012 9H32.8572L36.5652 0.275999L40.2732 9H39.5292L38.2812 5.964L38.2212 5.808L36.5652 1.8ZM2.292 16.8C2.292 17.352 2.416 17.836 2.664 18.252C2.92 18.66 3.252 18.976 3.66 19.2C4.068 19.416 4.512 19.524 4.992 19.524C5.392 19.524 5.748 19.472 6.06 19.368C6.372 19.264 6.652 19.124 6.9 18.948C7.156 18.772 7.376 18.58 7.56 18.372V20.304C7.216 20.576 6.84 20.788 6.432 20.94C6.032 21.092 5.524 21.168 4.908 21.168C4.268 21.168 3.672 21.064 3.12 20.856C2.576 20.648 2.1 20.348 1.692 19.956C1.292 19.564 0.98 19.104 0.756 18.576C0.54 18.04 0.432 17.448 0.432 16.8C0.432 16.152 0.54 15.564 0.756 15.036C0.98 14.5 1.292 14.036 1.692 13.644C2.1 13.252 2.576 12.952 3.12 12.744C3.672 12.536 4.268 12.432 4.908 12.432C5.524 12.432 6.032 12.508 6.432 12.66C6.84 12.812 7.216 13.024 7.56 13.296V15.228C7.376 15.02 7.156 14.828 6.9 14.652C6.652 14.476 6.372 14.336 6.06 14.232C5.748 14.128 5.392 14.076 4.992 14.076C4.512 14.076 4.068 14.188 3.66 14.412C3.252 14.628 2.92 14.94 2.664 15.348C2.416 15.756 2.292 16.24 2.292 16.8ZM10.5995 16.8C10.5995 17.336 10.7115 17.812 10.9355 18.228C11.1595 18.644 11.4675 18.972 11.8595 19.212C12.2515 19.452 12.7075 19.572 13.2275 19.572C13.7475 19.572 14.2035 19.452 14.5955 19.212C14.9875 18.972 15.2915 18.644 15.5075 18.228C15.7315 17.812 15.8435 17.336 15.8435 16.8C15.8435 16.264 15.7355 15.788 15.5195 15.372C15.3035 14.956 14.9995 14.628 14.6075 14.388C14.2155 14.148 13.7555 14.028 13.2275 14.028C12.7075 14.028 12.2515 14.148 11.8595 14.388C11.4675 14.628 11.1595 14.956 10.9355 15.372C10.7115 15.788 10.5995 16.264 10.5995 16.8ZM8.78747 16.8C8.78747 16.16 8.89947 15.576 9.12347 15.048C9.34747 14.512 9.65947 14.048 10.0595 13.656C10.4595 13.264 10.9275 12.964 11.4635 12.756C12.0075 12.54 12.5955 12.432 13.2275 12.432C13.8675 12.432 14.4555 12.54 14.9915 12.756C15.5275 12.964 15.9955 13.264 16.3955 13.656C16.8035 14.048 17.1155 14.512 17.3315 15.048C17.5555 15.576 17.6675 16.16 17.6675 16.8C17.6675 17.432 17.5555 18.02 17.3315 18.564C17.1155 19.1 16.8075 19.568 16.4075 19.968C16.0155 20.368 15.5475 20.68 15.0035 20.904C14.4675 21.12 13.8755 21.228 13.2275 21.228C12.5795 21.228 11.9835 21.12 11.4395 20.904C10.9035 20.68 10.4355 20.368 10.0355 19.968C9.63547 19.568 9.32747 19.1 9.11147 18.564C8.89547 18.02 8.78747 17.432 8.78747 16.8ZM18.994 12.6H20.746V21H18.994V12.6ZM21.85 21H20.098V19.44H21.79C22.158 19.44 22.506 19.392 22.834 19.296C23.162 19.192 23.45 19.032 23.698 18.816C23.946 18.6 24.138 18.328 24.274 18C24.418 17.664 24.49 17.264 24.49 16.8C24.49 16.336 24.418 15.94 24.274 15.612C24.138 15.276 23.946 15 23.698 14.784C23.45 14.568 23.162 14.412 22.834 14.316C22.506 14.212 22.158 14.16 21.79 14.16H20.098V12.6H21.85C22.73 12.6 23.498 12.772 24.154 13.116C24.818 13.46 25.334 13.948 25.702 14.58C26.07 15.204 26.254 15.944 26.254 16.8C26.254 17.656 26.07 18.4 25.702 19.032C25.334 19.656 24.818 20.14 24.154 20.484C23.498 20.828 22.73 21 21.85 21ZM28.6879 21V19.548H32.9239V21H28.6879ZM28.6879 14.052V12.6H32.9239V14.052H28.6879ZM28.6879 17.256V15.828H32.6839V17.256H28.6879ZM27.5839 12.6H29.2399V21H27.5839V12.6ZM35.3471 18.18C35.5231 18.492 35.7151 18.764 35.9231 18.996C36.1391 19.228 36.3751 19.408 36.6311 19.536C36.8871 19.664 37.1631 19.728 37.4591 19.728C37.8031 19.728 38.0831 19.64 38.2991 19.464C38.5151 19.288 38.6231 19.048 38.6231 18.744C38.6231 18.48 38.5551 18.268 38.4191 18.108C38.2911 17.948 38.0951 17.808 37.8311 17.688C37.5751 17.56 37.2591 17.424 36.8831 17.28C36.6831 17.208 36.4511 17.112 36.1871 16.992C35.9311 16.864 35.6871 16.704 35.4551 16.512C35.2231 16.312 35.0311 16.072 34.8791 15.792C34.7271 15.504 34.6511 15.16 34.6511 14.76C34.6511 14.28 34.7711 13.868 35.0111 13.524C35.2591 13.172 35.5911 12.904 36.0071 12.72C36.4311 12.528 36.9031 12.432 37.4231 12.432C37.9591 12.432 38.4191 12.524 38.8031 12.708C39.1951 12.884 39.5191 13.112 39.7751 13.392C40.0391 13.664 40.2431 13.948 40.3871 14.244L39.0431 14.988C38.9311 14.788 38.7951 14.608 38.6351 14.448C38.4831 14.28 38.3071 14.148 38.1071 14.052C37.9071 13.948 37.6791 13.896 37.4231 13.896C37.0871 13.896 36.8351 13.976 36.6671 14.136C36.4991 14.288 36.4151 14.468 36.4151 14.676C36.4151 14.884 36.4831 15.068 36.6191 15.228C36.7551 15.38 36.9631 15.528 37.2431 15.672C37.5231 15.808 37.8751 15.948 38.2991 16.092C38.5711 16.188 38.8311 16.308 39.0791 16.452C39.3351 16.596 39.5631 16.772 39.7631 16.98C39.9711 17.18 40.1311 17.42 40.2431 17.7C40.3631 17.972 40.4231 18.288 40.4231 18.648C40.4231 19.056 40.3431 19.42 40.1831 19.74C40.0231 20.06 39.8031 20.332 39.5231 20.556C39.2431 20.772 38.9271 20.936 38.5751 21.048C38.2311 21.168 37.8671 21.228 37.4831 21.228C36.9711 21.228 36.4911 21.132 36.0431 20.94C35.6031 20.74 35.2191 20.472 34.8911 20.136C34.5631 19.8 34.3071 19.436 34.1231 19.044L35.3471 18.18Z" fill="black"/>
</svg>
